<svg width="1119" height="1119" viewBox="0 0 1119 1119" fill="none" xmlns="http://www.w3.org/2000/svg">
<g clip-path="url(#clip0_49_2)">
<path d="M801.172 537.212L666.517 671.767L590.95 748.856V761.899L801.172 551.833V614.764L662.955 752.878V767.209L704.337 725.858V784.571L550.395 938.399V789.38L533.843 804.715V954.937L492.46 996.289V752.198H492.551L492.234 751.882L619.09 625.12V659.571H619.212L587.64 691.121V722.874L801.172 509.5V537.212Z" fill="#D9D9D9"/>
<path d="M801.171 297.806C801.154 303.717 798.605 309.252 794.551 312.945V312.958L491.546 615.738H427.17L801.171 242.014V297.806Z" fill="#D3D5D4"/>
<path d="M801.554 122.496C801.554 154.617 801.586 187.503 801.586 219.176C801.586 225.11 798.619 230.449 794.551 234.154L424.263 604.243L424.179 604.16L404.469 624.009H457.133L367.866 713.669L367.486 713.288V581.082C367.865 566.227 375.331 548.353 390.66 533.035C392.098 531.598 393.711 529.984 395.256 528.402L801.508 122.451L801.554 122.496Z" fill="#E4B44E"/>
<path d="M801.172 420.145C801.172 426.079 798.619 431.64 794.551 435.346V435.431L317 912.629V833.248H317.058C316.74 817.676 325.76 796.975 342.111 779.298L497.515 624.008H554.534V567.031L801.172 320.575V420.145Z" fill="#E4B44E"/>
</g>
<defs>
<clipPath id="clip0_49_2">
<rect width="485" height="875" fill="white" transform="translate(317 122)"/>
</clipPath>
</defs>
</svg>
