<svg width="24" height="44" viewBox="0 0 24 44" fill="none" xmlns="http://www.w3.org/2000/svg">
<g clip-path="url(#clip0_3_450)">
<path d="M23.959 20.8794L17.2957 27.6456L13.5563 31.522V32.1779L23.959 21.6146V24.7791L17.1195 31.7243V32.4449L19.1672 30.3655V33.318L11.5495 41.0533V33.5598L10.7304 34.3309V41.885L8.68259 43.9644V31.6901H8.68706L8.67141 31.6742L14.9488 25.2999V27.0323H14.9548L13.3925 28.6188V30.2155L23.959 19.4858V20.8794Z" fill="#D9D9D9"/>
<path d="M23.959 8.84043C23.9581 9.1377 23.832 9.41605 23.6314 9.60174V9.60236L8.63734 24.8279H5.45173L23.959 6.03491V8.84043Z" fill="#D9D9D9"/>
<path d="M23.9779 0.0249388C23.9779 1.64016 23.9795 3.29386 23.9795 4.88658C23.9795 5.18497 23.8327 5.45342 23.6314 5.63974L5.30785 24.2499L5.30371 24.2457L4.32835 25.2439H6.9344L2.51709 29.7525L2.49829 29.7334V23.0853C2.51701 22.3383 2.88647 21.4395 3.64505 20.6692C3.71618 20.597 3.79599 20.5158 3.87246 20.4362L23.9757 0.0227051L23.9779 0.0249388Z" fill="#E4B44E"/>
<path d="M23.959 14.9925C23.959 15.2909 23.8327 15.5706 23.6314 15.7569V15.7612L0 39.7574V35.7657H0.00287969C-0.0128434 34.9827 0.433474 33.9417 1.24259 33.0528L8.93271 25.2439H11.7543V22.3788L23.959 9.9856V14.9925Z" fill="#E4B44E"/>
</g>
<defs>
<clipPath id="clip0_3_450">
<rect width="24" height="44" fill="white"/>
</clipPath>
</defs>
</svg>
