<svg width="66" height="118" viewBox="0 0 66 118" fill="none" xmlns="http://www.w3.org/2000/svg">
<g clip-path="url(#clip0_6_89)">
<path d="M65.8872 55.9945L47.5629 74.1402L37.2797 84.5361V86.2951L65.8872 57.9662V66.4529L47.0783 85.0786V87.0112L52.7097 81.4347V89.3526L31.7609 110.097V90.0012L29.5083 92.0692V112.328L23.8769 117.904V84.9869H23.8892L23.8462 84.9442L41.109 67.8495V72.4954H41.1256L36.8292 76.7501V81.0324L65.8872 52.2573V55.9945Z" fill="#D9D9D9"/>
<path d="M65.8872 23.7085C65.8848 24.5057 65.5379 25.2522 64.9863 25.7502V25.7518L23.7526 66.584H14.9922L65.8872 16.1846V23.7085Z" fill="#D9D9D9"/>
<path d="M65.9391 0.0670256C65.9391 4.39876 65.9435 8.83368 65.9435 13.1051C65.9435 13.9053 65.5397 14.6252 64.9862 15.1249L14.5964 65.0341L14.585 65.0228L11.9028 67.6996H19.0694L6.92181 79.7909L6.87012 79.7396V61.9107C6.9216 59.9073 7.93762 57.4969 10.0237 55.4312C10.2193 55.2374 10.4388 55.0197 10.6491 54.8064L65.9329 0.0610352L65.9391 0.0670256Z" fill="white"/>
<path d="M65.8874 40.207C65.8874 41.0072 65.5399 41.7572 64.9863 42.2569V42.2684L0 106.622V95.9168H0.00791915C-0.0353193 93.8169 1.19205 91.0252 3.41711 88.6413L24.5649 67.6994H32.3242V60.0156L65.8874 26.7793V40.207Z" fill="white"/>
</g>
<defs>
<clipPath id="clip0_6_89">
<rect width="66" height="118" fill="white"/>
</clipPath>
</defs>
</svg>
