<svg width="674" height="855" viewBox="0 0 674 855" fill="none" xmlns="http://www.w3.org/2000/svg">
<g clip-path="url(#clip0_15_19)">
<path d="M528.843 329.797L421.951 436.672L361.965 497.902V508.262L528.843 341.41V391.395L419.124 501.098V512.48L451.974 479.635V526.271L329.773 648.454V530.091L316.633 542.271V661.59L283.783 694.435V500.558H283.854L283.604 500.306L384.303 399.621V426.985H384.4L359.337 452.044V477.266L528.843 307.786V329.797Z" fill="#D9D9D9"/>
<path d="M528.843 139.64C528.829 144.335 526.805 148.732 523.587 151.665V151.675L283.058 392.169H231.955L528.843 95.3253V139.64Z" fill="#D3D5D4"/>
<path d="M529.145 0.393895C529.145 25.9071 529.171 52.028 529.171 77.1857C529.171 81.899 526.816 86.1393 523.586 89.0822L229.646 383.039L229.58 382.973L213.933 398.738H255.739L184.878 469.954L184.576 469.652V364.642C184.876 352.843 190.803 338.646 202.972 326.479C204.113 325.338 205.393 324.056 206.62 322.799L529.109 0.358612L529.145 0.393895Z" fill="#E4B44E"/>
<path d="M528.843 236.812C528.843 241.526 526.816 245.943 523.587 248.886V248.954L144.5 627.985V564.934H144.546C144.294 552.566 151.454 536.123 164.433 522.082L287.796 398.738H333.058V353.482L528.843 157.726V236.812Z" fill="#E4B44E"/>
</g>
<path d="M44.5 812.8H91.4L78.1 830H44.5C21.3 830 4.2 815.3 4.2 795.9C4.2 776.3 21.3 763.1 44.5 763.1H91.4L78.1 780.5H44.5C33.3 780.5 24.9 787.2 24.9 796.8C24.9 806.3 33.2 812.8 44.5 812.8ZM145.385 762C177.885 762 194.285 772.6 194.285 796.5C194.285 820.4 177.885 831.1 145.385 831.1C112.785 831.1 96.4852 820.4 96.4852 796.5C96.4852 772.6 112.785 762 145.385 762ZM145.385 813.7C166.185 813.7 173.685 810.9 173.685 796.5C173.685 782.1 166.185 779.4 145.385 779.4C124.585 779.4 117.085 782.1 117.085 796.5C117.085 810.9 124.585 813.7 145.385 813.7ZM233.638 803.1L246.038 788.2H288.838V830H242.938C219.738 830 202.638 815.3 202.638 795.9C202.638 776.3 219.738 763.1 242.938 763.1H290.838L277.438 780.5H242.938C231.738 780.5 223.238 787.3 223.238 796.8C223.238 806.5 231.438 812.8 242.938 812.8H268.238V803.1H233.638ZM368.534 831.1C365.934 831.1 363.434 830.5 360.234 827.5L319.234 790.7V830H300.434V774.5C300.434 765.6 305.834 762 311.734 762C314.234 762 316.734 762.6 320.034 765.6L361.034 802.4V763.1H379.934V818.5C379.934 827.4 374.534 831.1 368.534 831.1ZM413.14 763.1V830H392.44V763.1H413.14ZM420.827 763.1H446.227L476.327 807.5L507.727 763.1H532.127L489.327 823.6C486.427 827.5 482.327 831.1 475.927 831.1C469.727 831.1 465.627 827.8 462.727 823.6L420.827 763.1ZM560.503 763.1V830H539.803V763.1H560.503ZM620.19 762C652.69 762 669.09 772.6 669.09 796.5C669.09 820.4 652.69 831.1 620.19 831.1C587.59 831.1 571.29 820.4 571.29 796.5C571.29 772.6 587.59 762 620.19 762ZM620.19 813.7C640.99 813.7 648.49 810.9 648.49 796.5C648.49 782.1 640.99 779.4 620.19 779.4C599.39 779.4 591.89 782.1 591.89 796.5C591.89 810.9 599.39 813.7 620.19 813.7Z" fill="#E4B44E"/>
<defs>
<clipPath id="clip0_15_19">
<rect width="385" height="695" fill="white" transform="translate(144.5)"/>
</clipPath>
</defs>
</svg>
